<svg xmlns="http://www.w3.org/2000/svg" viewBox="0 0 532 532" xml:space="preserve" stroke="#000"><g stroke-width="0"/><g stroke-linecap="round" stroke-linejoin="round"/><path style="fill:#325763" d="M356.174 448.659h33.391V337.354l-77.407-44.016z"/><path style="fill:#05232e" d="M66.783 364.248v84.41h33.391v-77.913c41.491 0 76.354-28.377 86.239-66.783L65.67 241.53c0 33.391 1.113 87.931 1.113 122.718zM33.394 192.659C14.949 192.66 0 207.609 0 226.051v44.524c18.419 0 33.353-14.913 33.391-33.323l.002-.07 17.25-22.921z"/><path style="fill:#c97e67" d="m148.969 94.813-49.774 8.546c-36.196 6.255-65.803 41.439-65.803 78.169v11.13c.002 0 .002 44.524.002 44.524l-.002.07v77.841H0v133.565h33.391v-77.913a88.8 88.8 0 0 0 33.391-6.497c25.915-10.494 45.776-32.814 52.846-60.286h69.589l44.522 33.391h44.522l47.861-133.565c-57.879-36.275-121.879-75.232-177.153-108.975z"/><path style="fill:#05232e" d="M467.478 114.746h-50.564c-13.916-35.911-50.307-57.214-92.718-50.009l-45.935 7.88v292.564l44.522 83.478h33.391V337.354h33.391l11.785-66.783h32.737v33.391h33.391l22.261-33.391c12.295 0 22.261-9.966 22.261-22.261v-89.043c0-24.487-20.035-44.521-44.522-44.521z"/><path style="fill:#f6d76f" d="M467.478 170.398V81.354h-33.391v89.044h18.922z"/><path style="fill:#05232e" d="M77.913 192.656h33.391v33.391H77.913zm44.522 44.522h33.391v33.391h-33.391z"/><path style="fill:#325763" d="M278.261 203.789V72.617l-43.533 7.474-85.759 14.723c10.546 61.871 64.414 108.975 129.292 108.975z"/></svg>